
<svg width="200" height="200" xmlns="http://www.w3.org/2000/svg">
  <rect width="200" height="200" fill="white"/>
  <!-- Simple QR code pattern for Burj Khalifa -->
  <g fill="black">
    <!-- Corner markers -->
    <rect x="10" y="10" width="30" height="30"/>
    <rect x="160" y="10" width="30" height="30"/>
    <rect x="10" y="160" width="30" height="30"/>
    
    <!-- Inner corner squares -->
    <rect x="15" y="15" width="20" height="20" fill="white"/>
    <rect x="165" y="15" width="20" height="20" fill="white"/>
    <rect x="15" y="165" width="20" height="20" fill="white"/>
    
    <!-- Center inner squares -->
    <rect x="20" y="20" width="10" height="10"/>
    <rect x="170" y="20" width="10" height="10"/>
    <rect x="20" y="170" width="10" height="10"/>
    
    <!-- Different data pattern for Burj Khalifa -->
    <rect x="50" y="15" width="5" height="5"/>
    <rect x="65" y="15" width="5" height="5"/>
    <rect x="75" y="15" width="5" height="5"/>
    <rect x="85" y="15" width="5" height="5"/>
    <rect x="105" y="15" width="5" height="5"/>
    <rect x="125" y="15" width="5" height="5"/>
    <rect x="145" y="15" width="5" height="5"/>
    
    <rect x="15" y="55" width="5" height="5"/>
    <rect x="25" y="55" width="5" height="5"/>
    <rect x="45" y="55" width="5" height="5"/>
    <rect x="65" y="55" width="5" height="5"/>
    <rect x="75" y="55" width="5" height="5"/>
    <rect x="95" y="55" width="5" height="5"/>
    <rect x="115" y="55" width="5" height="5"/>
    <rect x="135" y="55" width="5" height="5"/>
    <rect x="155" y="55" width="5" height="5"/>
    <rect x="175" y="55" width="5" height="5"/>
    
    <!-- Unique pattern -->
    <rect x="45" y="75" width="5" height="5"/>
    <rect x="65" y="75" width="5" height="5"/>
    <rect x="85" y="75" width="5" height="5"/>
    <rect x="105" y="75" width="5" height="5"/>
    <rect x="125" y="75" width="5" height="5"/>
    <rect x="145" y="75" width="5" height="5"/>
    <rect x="165" y="75" width="5" height="5"/>
    
    <rect x="25" y="95" width="5" height="5"/>
    <rect x="45" y="95" width="5" height="5"/>
    <rect x="65" y="95" width="5" height="5"/>
    <rect x="105" y="95" width="5" height="5"/>
    <rect x="125" y="95" width="5" height="5"/>
    <rect x="145" y="95" width="5" height="5"/>
    <rect x="165" y="95" width="5" height="5"/>
    
    <!-- Center alignment pattern -->
    <rect x="85" y="85" width="30" height="30"/>
    <rect x="90" y="90" width="20" height="20" fill="white"/>
    <rect x="95" y="95" width="10" height="10"/>
    
    <!-- Bottom different patterns -->
    <rect x="45" y="125" width="5" height="5"/>
    <rect x="65" y="125" width="5" height="5"/>
    <rect x="85" y="125" width="5" height="5"/>
    <rect x="125" y="125" width="5" height="5"/>
    <rect x="145" y="125" width="5" height="5"/>
    <rect x="165" y="125" width="5" height="5"/>
    
    <rect x="55" y="145" width="5" height="5"/>
    <rect x="75" y="145" width="5" height="5"/>
    <rect x="95" y="145" width="5" height="5"/>
    <rect x="115" y="145" width="5" height="5"/>
    <rect x="135" y="145" width="5" height="5"/>
    <rect x="155" y="145" width="5" height="5"/>
    
    <rect x="45" y="185" width="5" height="5"/>
    <rect x="65" y="185" width="5" height="5"/>
    <rect x="85" y="185" width="5" height="5"/>
    <rect x="105" y="185" width="5" height="5"/>
    <rect x="125" y="185" width="5" height="5"/>
    <rect x="145" y="185" width="5" height="5"/>
    <rect x="165" y="185" width="5" height="5"/>
  </g>
  
  <!-- Label -->
  <text x="100" y="215" text-anchor="middle" font-family="Arial" font-size="12" fill="black">
    Burj Khalifa
  </text>
</svg>
