
<svg width="200" height="200" xmlns="http://www.w3.org/2000/svg">
  <rect width="200" height="200" fill="white"/>
  <!-- Simple QR code pattern for Sheikh Zayed Mosque -->
  <g fill="black">
    <!-- Corner markers -->
    <rect x="10" y="10" width="30" height="30"/>
    <rect x="160" y="10" width="30" height="30"/>
    <rect x="10" y="160" width="30" height="30"/>
    
    <!-- Inner corner squares -->
    <rect x="15" y="15" width="20" height="20" fill="white"/>
    <rect x="165" y="15" width="20" height="20" fill="white"/>
    <rect x="15" y="165" width="20" height="20" fill="white"/>
    
    <!-- Center inner squares -->
    <rect x="20" y="20" width="10" height="10"/>
    <rect x="170" y="20" width="10" height="10"/>
    <rect x="20" y="170" width="10" height="10"/>
    
    <!-- Data pattern simulation -->
    <rect x="50" y="10" width="5" height="5"/>
    <rect x="60" y="10" width="5" height="5"/>
    <rect x="70" y="10" width="5" height="5"/>
    <rect x="90" y="10" width="5" height="5"/>
    <rect x="100" y="10" width="5" height="5"/>
    <rect x="120" y="10" width="5" height="5"/>
    <rect x="140" y="10" width="5" height="5"/>
    
    <rect x="10" y="50" width="5" height="5"/>
    <rect x="20" y="50" width="5" height="5"/>
    <rect x="40" y="50" width="5" height="5"/>
    <rect x="50" y="50" width="5" height="5"/>
    <rect x="80" y="50" width="5" height="5"/>
    <rect x="90" y="50" width="5" height="5"/>
    <rect x="110" y="50" width="5" height="5"/>
    <rect x="130" y="50" width="5" height="5"/>
    <rect x="150" y="50" width="5" height="5"/>
    <rect x="170" y="50" width="5" height="5"/>
    <rect x="190" y="50" width="5" height="5"/>
    
    <!-- More data pattern -->
    <rect x="50" y="70" width="5" height="5"/>
    <rect x="70" y="70" width="5" height="5"/>
    <rect x="90" y="70" width="5" height="5"/>
    <rect x="110" y="70" width="5" height="5"/>
    <rect x="130" y="70" width="5" height="5"/>
    <rect x="150" y="70" width="5" height="5"/>
    
    <rect x="30" y="90" width="5" height="5"/>
    <rect x="50" y="90" width="5" height="5"/>
    <rect x="70" y="90" width="5" height="5"/>
    <rect x="110" y="90" width="5" height="5"/>
    <rect x="130" y="90" width="5" height="5"/>
    <rect x="170" y="90" width="5" height="5"/>
    
    <!-- Center alignment pattern -->
    <rect x="85" y="85" width="30" height="30"/>
    <rect x="90" y="90" width="20" height="20" fill="white"/>
    <rect x="95" y="95" width="10" height="10"/>
    
    <!-- Bottom patterns -->
    <rect x="50" y="130" width="5" height="5"/>
    <rect x="70" y="130" width="5" height="5"/>
    <rect x="90" y="130" width="5" height="5"/>
    <rect x="130" y="130" width="5" height="5"/>
    <rect x="150" y="130" width="5" height="5"/>
    <rect x="170" y="130" width="5" height="5"/>
    
    <rect x="50" y="150" width="5" height="5"/>
    <rect x="60" y="150" width="5" height="5"/>
    <rect x="80" y="150" width="5" height="5"/>
    <rect x="100" y="150" width="5" height="5"/>
    <rect x="120" y="150" width="5" height="5"/>
    <rect x="140" y="150" width="5" height="5"/>
    
    <rect x="50" y="190" width="5" height="5"/>
    <rect x="70" y="190" width="5" height="5"/>
    <rect x="90" y="190" width="5" height="5"/>
    <rect x="110" y="190" width="5" height="5"/>
    <rect x="130" y="190" width="5" height="5"/>
    <rect x="150" y="190" width="5" height="5"/>
  </g>
  
  <!-- Label -->
  <text x="100" y="215" text-anchor="middle" font-family="Arial" font-size="12" fill="black">
    Sheikh Zayed Mosque
  </text>
</svg>
